<svg width="100" height="100" viewBox="0 0 100 100" fill="none" xmlns="http://www.w3.org/2000/svg">
<g clip-path="url(#clip0)">
<path d="M53.7264 11.5034C51.6681 9.44511 48.3314 9.44511 46.2732 11.5034L11.483 46.2944C9.42558 48.3527 9.42558 51.6894 11.483 53.7485L46.2749 88.5395C48.3332 90.5969 51.6698 90.5969 53.7281 88.5395L88.52 53.7485C90.5774 51.6894 90.5774 48.3527 88.52 46.2944L53.7264 11.5034ZM86.0318 51.2544L51.24 86.0462C50.5545 86.7317 49.4417 86.7317 48.7561 86.0462L13.9643 51.2544C13.2788 50.5688 13.2788 49.456 13.9643 48.7705L48.7561 13.9787C49.4417 13.2931 50.5545 13.2931 51.24 13.9787L86.0318 48.7705C86.7174 49.456 86.7174 50.5688 86.0318 51.2544Z" fill="white"/>
<path d="M53.7258 1.55599C51.6401 -0.434517 48.3583 -0.434517 46.2725 1.55599L1.54274 46.2944C-0.515549 48.3527 -0.515549 51.6893 1.54274 53.7485L46.2725 98.4688C48.3308 100.527 51.6675 100.527 53.7258 98.4688L98.4556 53.739C100.514 51.6808 100.514 48.3441 98.4556 46.2858L53.7258 1.55599ZM95.9709 51.2543L51.242 95.9841C50.5556 96.6705 49.4428 96.6705 48.7573 95.9841L4.02744 51.2543C3.34106 50.5688 3.34106 49.456 4.02744 48.7705L48.7573 4.04069C49.4428 3.35431 50.5556 3.35431 51.242 4.04069L95.9709 48.7705C96.6573 49.456 96.6573 50.5688 95.9709 51.2543Z" fill="white"/>
<path d="M49.7189 24.1543C47.8656 24.1543 46.093 24.917 44.8189 26.2632C43.5448 27.6093 42.8808 29.4197 42.982 31.2712L44.2698 54.8167C44.4234 57.6145 46.7391 59.8041 49.5413 59.7998H49.9153C52.7183 59.8041 55.034 57.6145 55.1867 54.8167L56.4746 31.2712C56.5767 29.4162 55.91 27.6025 54.6316 26.2555C53.3533 24.9084 51.5755 24.1483 49.7189 24.1543ZM51.6622 54.6211C51.6107 55.5537 50.8385 56.283 49.905 56.2821H49.531C48.5966 56.283 47.8253 55.5537 47.7738 54.6211L46.486 31.0773C46.4234 29.883 47.0248 28.7522 48.0501 28.1361C49.0754 27.5201 50.3572 27.5201 51.3816 28.1361C52.4069 28.7522 53.0092 29.883 52.9466 31.0773L51.6622 54.6211Z" fill="white"/>
<path d="M50.0004 63.3107C47.0884 63.3107 44.729 65.671 44.729 68.5821C44.729 71.4932 47.0884 73.8535 50.0004 73.8535C52.9115 73.8535 55.2718 71.4932 55.2718 68.5821C55.2718 65.671 52.9115 63.3107 50.0004 63.3107ZM50.0004 70.3392C49.0292 70.3392 48.2433 69.5525 48.2433 68.5821C48.2433 67.6117 49.0292 66.8249 50.0004 66.8249C50.9708 66.8249 51.7576 67.6117 51.7576 68.5821C51.7576 69.5525 50.9708 70.3392 50.0004 70.3392Z" fill="white"/>
</g>
<defs>
<clipPath id="clip0">
<rect width="100" height="100" fill="white"/>
</clipPath>
</defs>
</svg>
