<svg width="30" height="30" viewBox="0 0 30 30" fill="none" xmlns="http://www.w3.org/2000/svg">
<path d="M22.0156 19.3642C23.4919 17.3482 24.3749 14.872 24.3749 12.1875C24.3749 5.46759 18.9074 6.10352e-05 12.1874 6.10352e-05C5.46747 6.10352e-05 0 5.46759 0 12.1875C0 18.9075 5.46753 24.375 12.1875 24.375C14.8719 24.375 17.3484 23.4919 19.3644 22.0156L27.3487 29.9999L30 27.3485C30 27.3485 22.0156 19.3642 22.0156 19.3642ZM12.1875 20.625C7.53477 20.625 3.75001 16.8402 3.75001 12.1875C3.75001 7.53483 7.53477 3.75008 12.1875 3.75008C16.8402 3.75008 20.6249 7.53483 20.6249 12.1875C20.6249 16.8402 16.8401 20.625 12.1875 20.625Z" fill="white"/>
</svg>
