<svg width="60" height="60" viewBox="0 0 60 60" fill="none" xmlns="http://www.w3.org/2000/svg">
<path d="M30 14.7656C29.3532 14.7656 28.8281 15.2907 28.8281 15.9375C28.8281 16.5843 29.3532 17.1094 30 17.1094C30.6468 17.1094 31.1719 16.5843 31.1719 15.9375C31.1719 15.2907 30.6468 14.7656 30 14.7656Z" fill="white"/>
<path d="M10.5469 35.8594C11.1937 35.8594 11.7188 35.3343 11.7188 34.6875C11.7188 34.0407 11.1937 33.5156 10.5469 33.5156C9.90005 33.5156 9.375 34.0407 9.375 34.6875C9.375 35.3343 9.90005 35.8594 10.5469 35.8594Z" fill="white"/>
<path d="M39.375 3.04688C28.8249 3.04688 20.1659 10.3207 19.4962 19.4829C9.4487 19.9869 0 27.2319 0 37.0312C0 41.1264 1.62048 45.0943 4.57031 48.2382C5.15396 50.6442 4.44534 53.1944 2.68707 54.9527C2.35199 55.2878 2.25174 55.7918 2.43301 56.2299C2.61429 56.6675 3.04138 56.9531 3.51562 56.9531C6.85776 56.9531 10.0786 55.6425 12.4718 53.3331C14.8032 54.1278 17.845 54.6094 20.625 54.6094C31.1737 54.6094 39.8318 47.3373 40.5034 38.177C42.957 38.0681 45.509 37.6149 47.5282 36.9269C49.9214 39.2363 53.1422 40.5469 56.4844 40.5469C56.9586 40.5469 57.3857 40.2612 57.567 39.8236C57.7483 39.3855 57.648 38.8815 57.3129 38.5464C55.5547 36.7882 54.846 34.238 55.4297 31.832C58.3795 28.688 60 24.7202 60 20.625C60 10.443 49.8235 3.04688 39.375 3.04688ZM20.625 52.2656C17.8592 52.2656 14.7075 51.7227 12.5963 50.8827C12.144 50.7024 11.6272 50.8209 11.2981 51.1803C9.88312 52.7271 8.04337 53.8055 6.03882 54.3013C7.1434 52.1851 7.42538 49.6902 6.75339 47.3264C6.70029 47.14 6.60187 46.9698 6.46683 46.8311C3.80814 44.0927 2.34375 40.6123 2.34375 37.0312C2.34375 28.7732 10.7153 21.7969 20.625 21.7969C29.9826 21.7969 38.2031 28.304 38.2031 37.0312C38.2031 45.4317 30.3177 52.2656 20.625 52.2656ZM53.5332 30.4248C53.3981 30.564 53.2997 30.7343 53.2466 30.9201C52.5746 33.284 52.8566 35.7788 53.9612 37.8951C51.9566 37.3997 50.1169 36.3208 48.7019 34.774C48.3728 34.4151 47.856 34.2961 47.4037 34.4765C45.574 35.2043 42.9639 35.7083 40.4997 35.8301C40.1573 31.3985 37.9468 27.2333 34.1675 24.1406H49.4531C50.1004 24.1406 50.625 23.616 50.625 22.9688C50.625 22.3215 50.1004 21.7969 49.4531 21.7969H30.5672C27.9071 20.4428 24.9202 19.6532 21.8459 19.4875C22.5192 11.6167 30.1241 5.39062 39.375 5.39062C49.2847 5.39062 57.6562 12.3669 57.6562 20.625C57.6562 24.2061 56.1919 27.6865 53.5332 30.4248Z" fill="white"/>
<path d="M30 33.5156H15.2344C14.5871 33.5156 14.0625 34.0402 14.0625 34.6875C14.0625 35.3348 14.5871 35.8594 15.2344 35.8594H30C30.6473 35.8594 31.1719 35.3348 31.1719 34.6875C31.1719 34.0402 30.6473 33.5156 30 33.5156Z" fill="white"/>
<path d="M30 40.5469H10.5469C9.8996 40.5469 9.375 41.0715 9.375 41.7188C9.375 42.366 9.8996 42.8906 10.5469 42.8906H30C30.6473 42.8906 31.1719 42.366 31.1719 41.7188C31.1719 41.0715 30.6473 40.5469 30 40.5469Z" fill="white"/>
<path d="M49.4531 14.7656H34.6875C34.0402 14.7656 33.5156 15.2902 33.5156 15.9375C33.5156 16.5848 34.0402 17.1094 34.6875 17.1094H49.4531C50.1004 17.1094 50.625 16.5848 50.625 15.9375C50.625 15.2902 50.1004 14.7656 49.4531 14.7656Z" fill="white"/>
</svg>
