<svg width="40" height="40" viewBox="0 0 40 40" fill="none" xmlns="http://www.w3.org/2000/svg">
<path d="M35.7031 7.89062H27.8759L27.1148 5.60703C26.6354 4.16914 25.295 3.20312 23.7795 3.20312H16.2205C14.705 3.20312 13.3646 4.16914 12.8853 5.60703L12.1241 7.89062H10.2344V5.9375C10.2344 4.42977 9.00773 3.20312 7.5 3.20312H5.9375C4.42977 3.20312 3.20312 4.42977 3.20312 5.9375V8.03219C1.36187 8.51719 0 10.1961 0 12.1875V32.5C0 34.8693 1.92758 36.7969 4.29688 36.7969H35.7031C38.0724 36.7969 40 34.8693 40 32.5V12.1875C40 9.8182 38.0724 7.89062 35.7031 7.89062ZM5.54688 5.9375C5.54688 5.72211 5.72211 5.54688 5.9375 5.54688H7.5C7.71539 5.54688 7.89062 5.72211 7.89062 5.9375V7.89062H5.54688V5.9375ZM37.6562 32.5C37.6562 33.577 36.7801 34.4531 35.7031 34.4531H4.29688C3.21992 34.4531 2.34375 33.577 2.34375 32.5V12.1875C2.34375 11.1105 3.21992 10.2344 4.29688 10.2344H12.9688C13.4731 10.2344 13.9209 9.91164 14.0805 9.43305L15.1087 6.3482C15.2686 5.86891 15.7153 5.54688 16.2205 5.54688H23.7795C24.2847 5.54688 24.7315 5.86891 24.8912 6.34812L25.9195 9.43305C26.0791 9.91164 26.5269 10.2344 27.0312 10.2344H35.7031C36.7801 10.2344 37.6562 11.1105 37.6562 12.1875V32.5Z" fill="white"/>
<path d="M34.0625 14.9219C34.7097 14.9219 35.2344 14.3972 35.2344 13.75C35.2344 13.1028 34.7097 12.5781 34.0625 12.5781C33.4153 12.5781 32.8906 13.1028 32.8906 13.75C32.8906 14.3972 33.4153 14.9219 34.0625 14.9219Z" fill="white"/>
<path d="M8.28125 12.5781H5.9375C5.29031 12.5781 4.76562 13.1028 4.76562 13.75C4.76562 14.3972 5.29031 14.9219 5.9375 14.9219H8.28125C8.92844 14.9219 9.45312 14.3972 9.45312 13.75C9.45312 13.1028 8.92844 12.5781 8.28125 12.5781Z" fill="white"/>
<path d="M20 32.1094C14.1845 32.1094 9.45312 27.378 9.45312 21.5625C9.45312 15.747 14.1845 11.0156 20 11.0156C25.8155 11.0156 30.5469 15.747 30.5469 21.5625C30.5469 27.378 25.8155 32.1094 20 32.1094ZM20 13.3594C15.4768 13.3594 11.7969 17.0393 11.7969 21.5625C11.7969 26.0857 15.4768 29.7656 20 29.7656C24.5232 29.7656 28.2031 26.0857 28.2031 21.5625C28.2031 17.0393 24.5232 13.3594 20 13.3594Z" fill="white"/>
<path d="M20 27.4219C16.7691 27.4219 14.1406 24.7934 14.1406 21.5625C14.1406 18.3316 16.7691 15.7031 20 15.7031C23.2309 15.7031 25.8594 18.3316 25.8594 21.5625C25.8594 24.7934 23.2309 27.4219 20 27.4219ZM20 18.0469C18.0615 18.0469 16.4844 19.624 16.4844 21.5625C16.4844 23.501 18.0615 25.0781 20 25.0781C21.9385 25.0781 23.5156 23.501 23.5156 21.5625C23.5156 19.624 21.9385 18.0469 20 18.0469Z" fill="white"/>
</svg>
