<svg width="40" height="40" viewBox="0 0 40 40" fill="none" xmlns="http://www.w3.org/2000/svg">
<g clip-path="url(#clip0)">
<path d="M29.2931 13.0587H27.4175V7.41755C27.4176 3.32103 24.0968 8.88113e-05 20.0003 1.78128e-09C15.9037 -8.88078e-05 12.5828 3.32068 12.5827 7.4172C12.5827 7.41728 12.5827 7.41746 12.5827 7.41755V13.0587H10.7071C10.3147 13.0587 9.99658 13.3769 9.99658 13.7692V20.5898C10.0859 25.7435 14.1427 29.9522 19.2896 30.2309V33.6341H17.2505C16.4657 33.6341 15.8296 34.2703 15.8296 35.0551V36.135H14.7355C13.9507 36.135 13.3145 36.7711 13.3145 37.556V38.579C13.3145 39.3639 13.9507 40 14.7355 40H25.2647C26.0495 40 26.6857 39.3639 26.6857 38.579V37.556C26.6857 36.7711 26.0495 36.135 25.2647 36.135H24.1777V35.0551C24.1777 34.2703 23.5415 33.6341 22.7567 33.6341H20.7106V30.2309C25.8575 29.9522 29.9143 25.7435 30.0036 20.5898V13.7692C30.0036 13.3769 29.6855 13.0587 29.2931 13.0587ZM14.0037 7.41755C14.0037 4.10584 16.6884 1.42113 20.0001 1.42113C23.3118 1.42113 25.9965 4.10584 25.9965 7.41755V11.5241H14.0037V7.41755ZM14.0037 12.9451H25.9965V15.1902H14.0037V12.9451ZM14.0037 16.6111H25.9965V20.1209C25.9965 23.4326 23.3118 26.1173 20.0001 26.1173C16.6884 26.1173 14.0037 23.4326 14.0037 20.1209V16.6111ZM25.2647 37.556V38.579H14.7355V37.556H25.2647ZM22.7567 35.0551V36.135H17.2505V35.0551H22.7567ZM20.0001 28.8455C15.353 28.9287 11.5147 25.2366 11.4175 20.5898V14.4797H12.5898V20.1209C12.5916 24.2174 15.9139 27.5368 20.0104 27.535C24.1044 27.5333 27.4228 24.2149 27.4246 20.1209V14.4797H28.5897V20.5898C28.4926 25.2394 24.6499 28.9327 20.0001 28.8455Z" fill="white"/>
</g>
<defs>
<clipPath id="clip0">
<rect width="40" height="40" fill="white"/>
</clipPath>
</defs>
</svg>
